<svg width="256" height="170" viewBox="0 0 256 170" fill="none" xmlns="http://www.w3.org/2000/svg">
<path d="M26 81.542V35.2786L39.235 48.5012V68.3201H83.36V81.542H26ZM39.235 46.2926L26 33.0701V24.236L39.235 37.4585V46.2926ZM39.235 30.8616L26 17.6396V11.014L39.235 24.236V30.8616ZM39.235 15.4311L26 2.20853V0L39.235 13.2225V15.4311ZM149.563 119L136.328 105.778V103.569L149.563 116.791V119ZM149.563 107.987L136.328 94.764V88.1384L149.563 101.361V107.987ZM149.563 94.764L136.328 81.542V72.7371L149.563 85.9299V94.764ZM92.2025 81.542V52.889H120.883L134.117 66.1402H105.437V81.542H92.2025ZM149.563 83.7214L136.328 70.5286V50.7097H92.2025L78.9968 37.4585H149.563V83.7214ZM158.405 81.542V37.4585H180.482L193.717 50.7097H171.64V68.3201H202.531V66.1402H173.851L187.085 52.889H215.765V81.542H158.405ZM195.927 50.7097L182.664 37.4585H191.506L204.741 50.7097H195.927ZM211.373 50.7097L198.109 37.4585H204.741L217.976 50.7097H211.373ZM226.789 50.7097L213.554 37.4585H215.765L229 50.7097H226.789Z" fill="black"/>
<path d="M15.5656 141H20.9656V156.3C20.9656 158.4 20.4856 159.93 19.5256 160.89C18.5856 161.83 17.0656 162.3 14.9656 162.3H8.06563C5.96563 162.3 4.43563 161.83 3.47563 160.89C2.53563 159.93 2.06563 158.4 2.06563 156.3V141H7.46563V156.3C7.46563 157.5 8.06563 158.1 9.26563 158.1H13.7656C14.9656 158.1 15.5656 157.5 15.5656 156.3V141ZM24.5656 141H37.1656C39.2656 141 40.7856 141.48 41.7256 142.44C42.6856 143.38 43.1656 144.9 43.1656 147V149.7C43.1656 151.36 42.8856 152.65 42.3256 153.57C41.7856 154.49 40.9156 155.1 39.7156 155.4L43.4656 162H37.6156L34.1656 155.7H29.9656V162H24.5656V141ZM37.7656 147C37.7656 145.8 37.1656 145.2 35.9656 145.2H29.9656V151.5H35.9656C37.1656 151.5 37.7656 150.9 37.7656 149.7V147ZM51.5574 157.8H62.5074V162H46.1574V141H51.5574V157.8ZM72.9786 157.65C78.4586 157.95 82.1686 158.1 84.1086 158.1C84.5686 158.1 84.9286 157.97 85.1886 157.71C85.4686 157.43 85.6086 157.06 85.6086 156.6V153.9H78.7086C76.6086 153.9 75.0786 153.43 74.1186 152.49C73.1786 151.53 72.7086 150 72.7086 147.9V147C72.7086 144.9 73.1786 143.38 74.1186 142.44C75.0786 141.48 76.6086 141 78.7086 141H89.2386V145.2H79.9086C78.7086 145.2 78.1086 145.8 78.1086 147V147.6C78.1086 148.8 78.7086 149.4 79.9086 149.4H85.3086C87.2686 149.4 88.7086 149.86 89.6286 150.78C90.5486 151.7 91.0086 153.14 91.0086 155.1V156.6C91.0086 158.56 90.5486 160 89.6286 160.92C88.7086 161.84 87.2686 162.3 85.3086 162.3C84.2886 162.3 83.2086 162.28 82.0686 162.24L79.3086 162.12C77.2686 162.02 75.1586 161.88 72.9786 161.7V157.65ZM112.006 162H106.606V153.45H99.1063V162H93.7063V141H99.1063V149.25H106.606V141H112.006V162ZM129.12 146.7C129.12 145.5 128.52 144.9 127.32 144.9H122.22C121.02 144.9 120.42 145.5 120.42 146.7V156.3C120.42 157.5 121.02 158.1 122.22 158.1H127.32C128.52 158.1 129.12 157.5 129.12 156.3V146.7ZM134.52 156.3C134.52 158.4 134.04 159.93 133.08 160.89C132.14 161.83 130.62 162.3 128.52 162.3H121.02C118.92 162.3 117.39 161.83 116.43 160.89C115.49 159.93 115.02 158.4 115.02 156.3V146.7C115.02 144.6 115.49 143.08 116.43 142.14C117.39 141.18 118.92 140.7 121.02 140.7H128.52C130.62 140.7 132.14 141.18 133.08 142.14C134.04 143.08 134.52 144.6 134.52 146.7V156.3ZM137.534 141H150.134C152.234 141 153.754 141.48 154.694 142.44C155.654 143.38 156.134 144.9 156.134 147V149.7C156.134 151.36 155.854 152.65 155.294 153.57C154.754 154.49 153.884 155.1 152.684 155.4L156.434 162H150.584L147.134 155.7H142.934V162H137.534V141ZM150.734 147C150.734 145.8 150.134 145.2 148.934 145.2H142.934V151.5H148.934C150.134 151.5 150.734 150.9 150.734 149.7V147ZM169.326 162H163.926V145.2H157.626V141H175.626V145.2H169.326V162ZM193.93 161.7C189.47 162.1 185.77 162.3 182.83 162.3C180.87 162.3 179.43 161.84 178.51 160.92C177.59 160 177.13 158.56 177.13 156.6V147C177.13 144.9 177.6 143.38 178.54 142.44C179.5 141.48 181.03 141 183.13 141H193.93V145.2H184.33C183.13 145.2 182.53 145.8 182.53 147V156.6C182.53 157.06 182.66 157.43 182.92 157.71C183.2 157.97 183.55 158.1 183.97 158.1C184.39 158.1 184.85 158.1 185.35 158.1C185.85 158.08 186.37 158.06 186.91 158.04C187.45 158.02 187.99 158 188.53 157.98C189.09 157.96 189.8 157.92 190.66 157.86C191.54 157.8 192.63 157.73 193.93 157.65V161.7ZM209.833 141H215.233V156.3C215.233 158.4 214.753 159.93 213.793 160.89C212.853 161.83 211.333 162.3 209.233 162.3H202.333C200.233 162.3 198.703 161.83 197.743 160.89C196.803 159.93 196.333 158.4 196.333 156.3V141H201.733V156.3C201.733 157.5 202.333 158.1 203.533 158.1H208.033C209.233 158.1 209.833 157.5 209.833 156.3V141ZM229.033 162H223.633V145.2H217.333V141H235.333V145.2H229.033V162ZM236.807 157.65C242.287 157.95 245.997 158.1 247.937 158.1C248.397 158.1 248.757 157.97 249.017 157.71C249.297 157.43 249.437 157.06 249.437 156.6V153.9H242.537C240.437 153.9 238.907 153.43 237.947 152.49C237.007 151.53 236.537 150 236.537 147.9V147C236.537 144.9 237.007 143.38 237.947 142.44C238.907 141.48 240.437 141 242.537 141H253.067V145.2H243.737C242.537 145.2 241.937 145.8 241.937 147V147.6C241.937 148.8 242.537 149.4 243.737 149.4H249.137C251.097 149.4 252.537 149.86 253.457 150.78C254.377 151.7 254.837 153.14 254.837 155.1V156.6C254.837 158.56 254.377 160 253.457 160.92C252.537 161.84 251.097 162.3 249.137 162.3C248.117 162.3 247.037 162.28 245.897 162.24L243.137 162.12C241.097 162.02 238.987 161.88 236.807 161.7V157.65Z" fill="black"/>
</svg>
