<svg width="190" height="190" viewBox="0 0 190 190" fill="none" xmlns="http://www.w3.org/2000/svg">
<g clip-path="url(#clip0_1213_691)">
<path fill-rule="evenodd" clip-rule="evenodd" d="M95 190C147.467 190 190 147.467 190 95C190 42.5329 147.467 0 95 0C42.5328 0 0 42.5329 0 95C0 147.467 42.5328 190 95 190ZM102.977 182.038C151.038 182.038 190 143.07 190 95C190 46.9304 151.038 7.96191 102.977 7.96191C54.9158 7.96191 15.9542 46.9304 15.9542 95C15.9542 143.07 54.9158 182.038 102.977 182.038Z" fill="black"/>
<path d="M39.0068 110.019V79.0733L47.8683 87.9179V101.175H77.4122V110.019H39.0068ZM47.8683 86.4406L39.0068 77.596V71.6868L47.8683 80.5314V86.4406ZM47.8683 76.1187L39.0068 67.2745V62.8426L47.8683 71.6868V76.1187ZM47.8683 65.7972L39.0068 56.9526V55.4753L47.8683 64.3199V65.7972ZM121.738 135.075L112.877 126.231V124.753L121.738 133.597V135.075ZM121.738 127.708L112.877 118.863V114.431L121.738 123.276V127.708ZM121.738 118.863L112.877 110.019V104.129L121.738 112.954V118.863ZM83.3327 110.019V90.8529H102.535L111.397 99.7167H92.1942V110.019H83.3327ZM121.738 111.477L112.877 102.652V89.3952H83.3327L74.4908 80.5314H121.738V111.477ZM127.659 110.019V80.5314H142.44L151.302 89.3952H136.52V101.175H157.203V99.7167H138L146.861 90.8529H166.064V110.019H127.659ZM152.782 89.3952L143.901 80.5314H149.821L158.683 89.3952H152.782ZM163.123 89.3952L154.243 80.5314H158.683L167.544 89.3952H163.123ZM173.445 89.3952L164.584 80.5314H166.064L174.925 89.3952H173.445Z" fill="black"/>
</g>
<defs>
<clipPath id="clip0_1213_691">
<rect width="190" height="190" fill="white"/>
</clipPath>
</defs>
</svg>
